<?xml version="1.0" encoding="UTF-8"?>
<!-- CertiPac - Version horizontale compacte pour navbar web (logo réduit en hauteur) -->
<svg xmlns="http://www.w3.org/2000/svg" xmlns:xlink="http://www.w3.org/1999/xlink" viewBox="0 1500 2550.7 650">
  <defs>
    <linearGradient id="ng1" x1="668.56" y1="671.66" x2="2151.36" y2="671.66" gradientUnits="userSpaceOnUse">
      <stop offset="0" stop-color="#29a463"/>
      <stop offset="1" stop-color="#76bb39"/>
    </linearGradient>
  </defs>
  <!-- Texte "Certipac" uniquement - idéal pour la barre de navigation -->
  <g>
    <path fill="#194296" d="m395.36,1925.73c-3.78,52.19-23.04,93.26-57.79,123.24-34.76,29.98-80.55,44.97-137.39,44.97-62.18,0-111.08-20.93-146.72-62.79C17.82,1989.3,0,1931.84,0,1858.79v-29.64c0-46.63,8.21-87.71,24.65-123.24,16.43-35.53,39.91-62.79,70.45-81.77,30.53-18.98,66-28.48,106.42-28.48,55.96,0,101.03,14.99,135.23,44.97,34.19,29.98,53.96,72.06,59.29,126.24h-99.92c-2.45-31.31-11.16-54.01-26.15-68.12-14.99-14.1-37.81-21.15-68.45-21.15-33.31,0-58.24,11.94-74.78,35.81-16.54,23.87-25.04,60.9-25.48,111.08v36.64c0,52.41,7.94,90.71,23.82,114.91,15.87,24.2,40.91,36.3,75.11,36.3,30.86,0,53.9-7.05,69.11-21.15,15.21-14.1,23.92-35.92,26.15-65.45h99.92Z"/>
    <path fill="#194296" d="m620.52,2093.94c-52.85,0-95.88-16.21-129.07-48.63-33.2-32.42-49.79-75.61-49.79-129.57v-9.33c0-36.19,7-68.56,20.98-97.09,13.99-28.53,33.81-50.51,59.45-65.95,25.65-15.43,54.9-23.15,87.76-23.15,49.3,0,88.1,15.55,116.41,46.63,28.31,31.09,42.47,75.17,42.47,132.23v39.3h-229.49c3.11,23.54,12.49,42.42,28.15,56.62,15.66,14.21,35.47,21.32,59.45,21.32,37.08,0,66.06-13.43,86.93-40.3l47.3,52.96c-14.44,20.43-33.97,36.36-58.62,47.79-24.65,11.44-51.96,17.15-81.94,17.15Zm-10.99-296.11c-19.1,0-34.59,6.47-46.46,19.41-11.88,12.94-19.48,31.45-22.82,55.53h133.9v-7.7c-.45-21.41-6.22-37.97-17.32-49.68-11.11-11.71-26.87-17.56-47.3-17.56Z"/>
    <path fill="#194296" d="m1025.88,1817.15c-13.1-1.78-24.65-2.67-34.64-2.67-36.42,0-60.29,12.32-71.61,36.97v235.82h-96.26v-360.39h90.93l2.66,42.97c19.32-33.08,46.07-49.63,80.27-49.63,10.66,0,20.65,1.45,29.98,4.33l-1.33,92.6Z"/>
    <path fill="#194296" d="m1204.07,1638.29v88.6h61.62v70.61h-61.62v179.86c0,13.33,2.55,22.87,7.66,28.65,5.1,5.78,14.87,8.66,29.31,8.66,10.66,0,20.1-.77,28.31-2.33v72.94c-18.87,5.77-38.3,8.66-58.29,8.66-67.5,0-101.92-34.08-103.25-102.25v-194.18h-52.63v-70.61h52.63v-88.6h96.26Z"/>
    <path fill="#194296" d="m1318.65,1633.62c0-14.43,4.83-26.31,14.49-35.64,9.66-9.33,22.82-13.99,39.47-13.99s29.53,4.66,39.3,13.99c9.77,9.33,14.66,21.21,14.66,35.64s-4.94,26.65-14.82,35.97c-9.88,9.33-22.93,13.99-39.14,13.99s-29.26-4.66-39.14-13.99c-9.88-9.33-14.82-21.32-14.82-35.97Zm102.25,453.65h-96.59v-360.39h96.59v360.39Z"/>
    <path fill="#43aa43" d="m1824.59,1910.41c0,55.52-12.61,99.98-37.81,133.4-25.2,33.42-59.24,50.13-102.09,50.13-36.42,0-65.84-12.66-88.26-37.97v169.87h-96.26v-498.95h89.27l3.33,35.3c23.32-27.98,53.74-41.97,91.27-41.97,44.41,0,78.94,16.44,103.58,49.3,24.65,32.87,36.97,78.16,36.97,135.89v5Zm-96.26-6.99c0-33.53-5.95-59.4-17.82-77.61-11.88-18.21-29.15-27.32-51.8-27.32-30.2,0-50.96,11.55-62.28,34.64v147.55c11.76,23.77,32.75,35.64,62.95,35.64,45.96,0,68.95-37.64,68.95-112.91Z"/>
    <path fill="#43aa43" d="m2093.06,2087.28c-4.45-8.66-7.66-19.43-9.66-32.31-23.32,25.98-53.63,38.97-90.93,38.97-35.31,0-64.57-10.21-87.77-30.64-23.21-20.43-34.8-46.18-34.8-77.27,0-38.19,14.15-67.5,42.47-87.93,28.31-20.43,69.22-30.75,122.74-30.98h44.3v-20.65c0-16.66-4.28-29.98-12.83-39.97-8.55-9.99-22.04-14.99-40.47-14.99-16.21,0-28.93,3.89-38.14,11.66-9.22,7.78-13.82,18.43-13.82,31.98h-96.26c0-20.87,6.44-40.19,19.32-57.96,12.88-17.76,31.08-31.69,54.62-41.8,23.54-10.1,49.96-15.15,79.27-15.15,44.41,0,79.66,11.16,105.75,33.48,26.09,22.31,39.14,53.68,39.14,94.09v156.21c.22,34.2,5,60.07,14.32,77.61v5.66h-97.26Zm-79.6-66.95c14.21,0,27.31-3.16,39.3-9.5,11.99-6.33,20.87-14.82,26.65-25.48v-61.95h-35.97c-48.19,0-73.83,16.66-76.94,49.96l-.33,5.66c0,11.99,4.21,21.87,12.66,29.64,8.44,7.78,19.99,11.66,34.64,11.66Z"/>
    <path fill="#43aa43" d="m2399.82,2016.33c17.76,0,32.2-4.88,43.3-14.66,11.1-9.77,16.87-22.76,17.32-38.97h90.26c-.22,24.43-6.89,46.8-19.99,67.12-13.1,20.32-31.03,36.09-53.79,47.3-22.76,11.21-47.91,16.82-75.44,16.82-51.52,0-92.15-16.37-121.91-49.13-29.76-32.75-44.63-77.99-44.63-135.73v-6.33c0-55.51,14.77-99.81,44.3-132.9,29.53-33.08,70.05-49.63,121.57-49.63,45.07,0,81.21,12.83,108.42,38.47,27.2,25.65,41.02,59.79,41.47,102.42h-90.26c-.45-18.74-6.22-33.98-17.32-45.7-11.11-11.72-25.76-17.58-43.97-17.58-22.43,0-39.36,8.18-50.79,24.52-11.44,16.35-17.15,42.87-17.15,79.56v10.01c0,37.14,5.66,63.83,16.98,80.06,11.33,16.24,28.53,24.35,51.63,24.35Z"/>
  </g>
</svg>
