<?xml version="1.0" encoding="UTF-8"?>
<!-- CertiPac - Favicon carré avec fond bleu et icône -->
<svg xmlns="http://www.w3.org/2000/svg" xmlns:xlink="http://www.w3.org/1999/xlink" viewBox="0 0 512 512">
  <defs>
    <linearGradient id="fg1" x1="668.56" y1="671.66" x2="2151.36" y2="671.66" gradientUnits="userSpaceOnUse">
      <stop offset="0" stop-color="#29a463"/>
      <stop offset="1" stop-color="#76bb39"/>
    </linearGradient>
    <linearGradient id="fg2" x1="388.69" y1="933.43" x2="2095.43" y2="933.43" xlink:href="#fg1"/>
  </defs>
  <rect width="512" height="512" rx="64" fill="#194296"/>
  <svg x="56" y="86" width="400" height="340" viewBox="350 0 1840 1460" preserveAspectRatio="xMidYMid meet">
    <path fill="url(#fg1)" d="m1213.51,764.48c253.85-303.85,562.09-525.77,934.72-655.17l3.13,3.5c-3.25,3.83-6.25,7.91-9.79,11.45-43.47,43.65-87.77,86.51-130.33,131.04-42,43.95-82.8,89.09-123.12,134.6-46.28,52.24-92.05,104.97-136.93,158.42-35.99,42.85-70.92,86.64-105.28,130.81-54.33,69.84-108.76,139.63-161.34,210.77-55.47,75.05-109.03,151.52-162.97,227.69-23.18,32.74-45.17,66.33-67.81,99.45-3.43,5.02-7.46,9.62-13.22,16.97-181.04-232.09-371.37-453.39-572.01-666.21,36.36-14.6,200.86,9.09,291.31,43.49,93.32,35.49,180.18,81.44,253.65,153.19Z"/>
    <path fill="url(#fg2)" d="m1966.76,413.99c55.39,96.8,90.03,196.68,111.29,301.55,15.54,76.68,22.74,192.8,12.87,222.08-25.71-11.55-51.24-23.02-79.24-35.6-3.33,7.89-6.73,14.33-8.84,21.16-16.62,53.84-39.32,104.77-69.7,152.39-28.03,43.94-61.16,83.44-97.71,120.52-47.94,48.64-101.53,89.69-159.91,124.74-86.09,51.69-178.14,88.16-276.14,110.52-96.76,22.08-194.78,24.18-292.96,19.44-59.34-2.86-117.81-14.94-175.19-31.08-72.93-20.5-142.56-48.88-208.04-87.15-44.33-25.92-85.01-56.67-123.8-90.37-42.65-37.06-79.35-79.07-110.61-125.8-43.91-65.63-75.86-136.71-89.88-214.74-5.6-31.13-7.01-63.01-10.1-94.57-.39-3.94.62-8.02,1.29-15.56,3.27,4.86,5.42,6.71,5.88,8.92,21.86,106.2,71.38,198.04,142.04,279.73,51.28,59.29,110.99,107.69,178.04,147.61,84.79,50.49,175.85,83.87,273.42,98.63,35.45,5.36,71.24,9.85,107.01,11.22,32.35,1.24,65.02-.85,97.3-4.04,66.29-6.55,130.71-22.09,193.54-44.29,78.32-27.67,149.6-67.73,215.06-118.87,60.54-47.3,112.59-102.19,154.35-166.62,34.86-53.78,60.8-111.67,77.1-173.75.85-3.25,1.23-6.63,2.16-11.72-43.87-20.46-87.42-40.78-133.11-62.09,87.8-115.27,172.01-229.43,263.91-342.3Z"/>
    <path fill="#FFFFFF" d="m1792.46,205.08c-41.86,25.82-78.21,48.25-115.95,71.53-6.98-4.26-14.15-8.15-20.83-12.77-86.78-60.03-182.9-97.77-286.45-114.84-79.31-13.07-159.19-14-239.43-2.69-83.21,11.73-161.43,37.52-236.05,74.88-55.27,27.67-105.3,63.22-151.06,105.03-49.93,45.62-93.11,96.61-125.5,155.93-32.02,58.65-53.63,121.14-62.45,187.79-8.25,62.33-5.42,124.03,8.42,185.32,10.58,46.87,28.56,90.99,50.47,133.46,27.77,53.86,63.79,101.94,107.32,144.08,43.41,42.04,91.75,77.62,144.93,106.51,5.04,2.74,9.76,6.06,14.63,9.11-.7,1.44-1.4,2.87-2.1,4.31-16.99-6.74-34.28-12.8-50.91-20.32-95.75-43.24-180.43-102.14-250.73-180.58-70.63-78.81-118.31-169.78-140.57-273.53-21.66-100.95-10.08-199.1,25.35-295.31,22.66-61.53,53.48-118.59,93.64-170.2,29.68-38.14,62.14-73.86,99.07-105.58,53.32-45.8,111.2-84.39,173.87-115.88,81.62-41.02,168.15-66.93,258.22-80.78,65.79-10.11,132.36-13.24,198.54-8.1,96.88,7.53,191.21,28.14,281.22,66.3,77.57,32.89,149.49,74.94,214.15,129.14,2.6,2.18,5.91,3.53,12.21,7.19Z"/>
  </svg>
</svg>
